<?xml version="1.0" encoding="iso-8859-1"?>
<!-- Generator: Adobe Illustrator 16.0.0, SVG Export Plug-In . SVG Version: 6.00 Build 0)  -->
<!DOCTYPE svg PUBLIC "-//W3C//DTD SVG 1.1//EN" "http://www.w3.org/Graphics/SVG/1.1/DTD/svg11.dtd">
<svg version="1.1" id="Capa_1" xmlns="http://www.w3.org/2000/svg" xmlns:xlink="http://www.w3.org/1999/xlink" x="0px" y="0px"
	 width="576.418px" height="576.418px" viewBox="0 0 576.418 576.418" style="enable-background:new 0 0 576.418 576.418;"
	 xml:space="preserve">
<g>
	<g>
		<path d="M58.452,475.162L37.455,496.16l44.299,44.301l20.998-20.998c19.421,13.365,41.735,22.809,65.811,27.252v29.703h62.65
			v-29.703c24.073-4.443,46.387-13.887,65.808-27.252l20.998,20.998l44.3-44.301l-20.998-20.998
			c13.366-19.424,22.81-41.734,27.253-65.811h29.703v-62.65h-29.703c-4.443-24.072-13.887-46.387-27.253-65.812l20.998-20.998
			l-44.3-44.3l-20.998,20.998c-19.421-13.366-41.735-22.809-65.808-27.252v-29.703h-62.65v29.703
			c-24.073,4.443-46.386,13.887-65.811,27.252l-20.998-20.998l-44.299,44.303l20.998,20.998
			c-13.366,19.426-22.809,41.736-27.252,65.811H1.496v62.652H31.2C35.646,433.428,45.089,455.74,58.452,475.162z M199.888,251.339
			c69.97,0,126.69,56.719,126.69,126.69s-56.72,126.689-126.69,126.689c-69.97,0-126.69-56.719-126.69-126.689
			C73.195,308.059,129.918,251.339,199.888,251.339z"/>
		<path d="M555.656,112.565l18.682-7.965l-19.719-46.228l-18.679,7.968c-8.038-11.31-17.892-20.961-29.36-28.758l7.576-18.837
			L467.531,0l-7.576,18.837c-13.59-2.286-27.559-2.139-41.093,0.432l-7.969-18.682L364.666,20.3l7.969,18.681
			c-11.311,8.036-20.961,17.889-28.758,29.357l-18.838-7.577l-18.748,46.628l18.837,7.574c-2.311,13.675-2.163,27.466,0.435,41.096
			l-18.679,7.965l19.713,46.228l18.679-7.968c8.035,11.307,17.889,20.958,29.357,28.758l-7.573,18.837l46.625,18.746l7.573-18.837
			c13.587,2.283,27.559,2.139,41.096-0.431l7.969,18.681l46.228-19.712l-7.969-18.681c11.31-8.039,20.961-17.889,28.758-29.358
			l18.838,7.577l18.745-46.628l-18.834-7.573C558.398,139.986,558.251,126.194,555.656,112.565z M471.393,206.498
			c-9.819,4.189-20.165,6.313-30.746,6.313c-31.513,0-59.86-18.73-72.226-47.712c-16.974-39.804,1.598-85.995,41.401-102.969
			c9.82-4.189,20.163-6.313,30.744-6.313c31.515,0,59.863,18.73,72.226,47.711C529.766,143.331,511.194,189.524,471.393,206.498z"/>
	</g>
</g>
<g>
</g>
<g>
</g>
<g>
</g>
<g>
</g>
<g>
</g>
<g>
</g>
<g>
</g>
<g>
</g>
<g>
</g>
<g>
</g>
<g>
</g>
<g>
</g>
<g>
</g>
<g>
</g>
<g>
</g>
</svg>
